PathFileType	4	(X/Y/Z)	C:/Users/opensim2020/Desktop/walking_exp_matlab/subject03_walking08_straight_02.trc	
DataRate	CameraRate	NumFrames	NumMarkers	Units	OrigDataRate	OrigDataStartFrame	OrigNumFrames	
100.00	100.00	6	51	mm	100.00	1788	314	
Frame#	Time	LFHD			RFHD			LBHD			RBHD			C7			T10			CLAV			STRN			RBAK			LSHO			LUPA			LELB			LFRM			LWRA			LWRB			LFIN			RSHO			RUPA			RELB			RFRM			RWRA			RWRB			RFIN			LASI			RASI			LPSI			RPSI			LTHI			LKNE			LTIB			LANK			LHEE			LTOE			RTHI			RKNE			RTIB			RANK			RHEE			RTOE			*39			*40			*41			*42			*43			*44			*45			*46			*47			*48			*49			*50			
		X1	Y1	Z1	X2	Y2	Z2	X3	Y3	Z3	X4	Y4	Z4	X5	Y5	Z5	X6	Y6	Z6	X7	Y7	Z7	X8	Y8	Z8	X9	Y9	Z9	X10	Y10	Z10	X11	Y11	Z11	X12	Y12	Z12	X13	Y13	Z13	X14	Y14	Z14	X15	Y15	Z15	X16	Y16	Z16	X17	Y17	Z17	X18	Y18	Z18	X19	Y19	Z19	X20	Y20	Z20	X21	Y21	Z21	X22	Y22	Z22	X23	Y23	Z23	X24	Y24	Z24	X25	Y25	Z25	X26	Y26	Z26	X27	Y27	Z27	X28	Y28	Z28	X29	Y29	Z29	X30	Y30	Z30	X31	Y31	Z31	X32	Y32	Z32	X33	Y33	Z33	X34	Y34	Z34	X35	Y35	Z35	X36	Y36	Z36	X37	Y37	Z37	X38	Y38	Z38	X39	Y39	Z39	X40	Y40	Z40	X41	Y41	Z41	X42	Y42	Z42	X43	Y43	Z43	X44	Y44	Z44	X45	Y45	Z45	X46	Y46	Z46	X47	Y47	Z47	X48	Y48	Z48	X49	Y49	Z49	X50	Y50	Z50	X51	Y51	Z51	

236	2.350	1538.89587	-720.75702	1610.95740	1407.92017	-696.33972	1615.81006	1559.49951	-588.52643	1591.30493	1430.10498	-569.00214	1594.56030	1508.23108	-525.28662	1424.89453	1507.27344	-499.74078	1105.67676	1491.53943	-644.16870	1346.88318	1490.64453	-693.40906	1185.40808	1417.53638	-462.65311	1243.41443	1650.97900	-619.35577	1381.82849	1724.50220	-649.22766	1189.11670	1735.74927	-681.31812	1070.30286	1729.77002	-728.65692	949.04327	1697.77612	-758.15021	834.36469	1752.85242	-750.88837	839.40625	1741.50098	-779.92432	761.07928	1338.28516	-580.69006	1369.29431	1269.38696	-591.27539	1144.64795	1257.39978	-615.19690	1034.30884	1254.73755	-640.04401	899.56195	1288.05261	-678.95447	806.76312	1246.55432	-644.36407	799.44922	1254.32019	-672.93005	730.91968	1611.03284	-682.95160	951.94989	1372.37231	-660.35687	943.37061	1574.76404	-516.41797	972.12225	1425.86450	-503.67365	969.08704	1650.69836	-633.50720	648.75140	1607.14880	-637.21173	471.46774	1609.06763	-590.19611	281.49759	1565.68933	-578.72900	71.44386	1529.62305	-538.73920	35.74164	1530.51392	-731.35663	35.61240	1330.26050	-645.85254	644.31329	1348.94214	-701.28174	472.65268	1353.64111	-577.96356	327.50400	1403.28833	-441.11423	164.00644	1459.76196	-389.84415	159.41721	1409.13684	-530.92279	56.47419																																				 
237	2.360	1538.47461	-727.77264	1610.97754	1407.52954	-702.96942	1615.65942	1559.49207	-595.59631	1591.54187	1430.16174	-575.63080	1594.64111	1508.54272	-532.15375	1424.84814	1507.33508	-507.17886	1105.43701	1491.69055	-650.89624	1346.91467	1490.96301	-700.25018	1185.46057	1418.06274	-469.36667	1243.44055	1651.03687	-626.26801	1382.19604	1725.04883	-658.00452	1190.20618	1736.49744	-692.03680	1071.97327	1730.52332	-742.07819	951.86981	1698.30481	-773.83752	837.73773	1753.38818	-766.50995	842.70850	1742.19458	-797.28540	765.02734	1338.54736	-587.01666	1369.42615	1269.24695	-596.63757	1144.82117	1257.04297	-620.00604	1034.41418	1254.19080	-644.28973	899.61371	1287.31311	-682.81537	806.64417	1245.73767	-648.20227	799.48102	1253.47766	-676.46582	730.65454	1611.65259	-689.73700	951.74542	1372.94678	-667.72644	943.54004	1574.94678	-523.17749	972.01947	1426.06982	-511.19846	968.94348	1650.56030	-638.42413	648.55432	1607.16907	-640.17975	471.15564	1609.05908	-591.93066	281.61493	1565.61426	-578.88892	71.54866	1529.94104	-538.22827	36.41462	1530.51453	-731.45709	35.58311	1330.77136	-656.69080	645.60175	1350.13562	-714.52063	474.37045	1354.41260	-595.41821	325.43271	1403.76892	-463.79523	157.46869	1459.89160	-412.34558	150.61369	1409.91614	-558.35632	54.15973	1502.37805	-651.39301	1688.79333																																	 
238	2.370	1537.98914	-734.72675	1610.96826	1407.10791	-709.72028	1615.47791	1559.33325	-602.75726	1591.72009	1430.19617	-582.24316	1594.66150	1508.88135	-539.11133	1424.89185	1508.35461	-513.53632	1105.86755	1491.83228	-657.63550	1346.91101	1491.24243	-707.08643	1185.46094	1418.41956	-476.22565	1243.30933	1651.04663	-633.14667	1382.45972	1725.62708	-666.53387	1191.22949	1737.49353	-702.28516	1073.66125	1731.27209	-755.07489	954.61047	1698.72302	-789.56787	841.17896	1753.84070	-781.80212	845.97516	1742.66748	-814.38495	768.95837	1338.77295	-593.58807	1369.38086	1269.07922	-602.04205	1144.91797	1256.58289	-624.74707	1034.47571	1253.57483	-648.48303	899.52185	1286.65479	-686.58795	806.25653	1245.02979	-652.05182	799.36182	1252.72144	-679.76733	730.38818	1612.39697	-696.39429	951.48743	1373.66833	-674.90961	943.69861	1575.02649	-530.06122	971.76617	1426.24316	-518.23077	968.90338	1650.66553	-643.44684	648.01727	1607.40430	-643.38666	470.89014	1609.03210	-593.75299	281.73013	1565.49927	-579.02545	71.72655	1529.93701	-538.14166	36.72279	1530.54663	-731.49280	35.53615	1330.89575	-667.69849	646.45227	1351.31287	-727.46222	476.08331	1355.20874	-612.90076	323.27344	1404.21985	-487.06000	150.50154	1460.68665	-434.99875	141.70612	1410.50366	-586.31360	51.93536	1501.75903	-658.52368	1688.61145																																	 
239	2.380	1537.47925	-741.67609	1610.91821	1406.65723	-716.39227	1615.28577	1559.26599	-609.60931	1591.81934	1430.11438	-588.96759	1594.50403	1508.89783	-545.94073	1424.76855	1508.56921	-520.76416	1105.39783	1491.93530	-664.39069	1346.81567	1491.53918	-713.93988	1185.40759	1418.84363	-482.99637	1243.05212	1651.04419	-640.01453	1382.63647	1726.20862	-675.22119	1192.08276	1738.55225	-712.43237	1075.22864	1732.03711	-768.04340	957.34631	1699.15356	-805.22620	844.85834	1754.16602	-796.87823	849.20239	1742.92285	-831.17328	772.93500	1338.95618	-600.14545	1369.25562	1268.87183	-607.45856	1144.86511	1256.10461	-629.37878	1034.33569	1252.89026	-652.82001	899.38208	1285.86060	-690.74243	806.07794	1244.35010	-655.84814	799.17883	1251.88513	-683.48047	730.03381	1613.03979	-702.89355	951.10107	1374.05737	-682.15076	943.87781	1575.15613	-536.74579	971.57965	1426.36743	-525.31049	968.85199	1651.34631	-648.16492	647.50916	1607.56958	-646.76459	470.61334	1609.03857	-595.63086	281.82849	1565.08276	-579.35657	71.67677	1529.73181	-538.12140	36.56364	1530.58630	-731.55115	35.45826	1331.13440	-678.54437	647.49982	1352.45068	-739.97711	477.84094	1355.84204	-630.30414	320.93082	1404.68884	-510.62051	143.60316	1460.74976	-459.36597	132.25681	1410.94214	-614.70636	49.92348	1501.36743	-665.43640	1688.53662																																	 
240	2.390	1536.89026	-748.62830	1610.88354	1406.09790	-722.93127	1614.99829	1559.12976	-616.60846	1591.84460	1430.03333	-595.56476	1594.41003	1509.08777	-552.57202	1424.70264	1508.89746	-527.72430	1105.25452	1491.98181	-671.18134	1346.74023	1491.78247	-720.72534	1185.23804	1419.24084	-489.74884	1242.75903	1651.04871	-646.90240	1382.71558	1726.74243	-683.69037	1192.81226	1739.40515	-722.53198	1076.63586	1732.72217	-780.64209	959.98187	1699.45605	-820.62366	848.60901	1754.37585	-811.68268	852.38287	1742.96936	-847.65576	776.90680	1339.05505	-606.70160	1369.02698	1268.76782	-612.64569	1144.65259	1255.56006	-634.11676	1034.11389	1252.26343	-657.12872	899.04962	1284.87756	-695.00085	805.55328	1243.74304	-659.85376	798.78430	1251.22009	-686.68005	729.43445	1613.74170	-709.36841	950.72388	1374.51477	-689.28503	944.10779	1575.11877	-543.46045	971.26984	1426.41846	-532.35199	968.77753	1651.42041	-652.71301	647.41223	1607.63745	-650.24963	470.33118	1609.00623	-597.58020	281.86398	1565.16284	-579.71436	71.54145	1529.77954	-537.89954	37.09117	1530.62305	-731.65204	35.42420	1331.28247	-688.14081	648.45667	1353.42700	-752.05463	479.42264	1356.38965	-647.54675	318.69595	1405.02893	-535.14221	136.31406	1461.19519	-484.18930	122.74483	1411.16150	-643.67181	48.10876	1501.02832	-672.20490	1688.71814																																	 
241	2.400	1536.30054	-755.55524	1610.81116	1405.56140	-729.67651	1614.73425	1558.89368	-623.62097	1591.79492	1429.94604	-602.19800	1594.15039	1509.24634	-559.24194	1424.52502	1509.15442	-534.68359	1105.03821	1491.98877	-677.87659	1346.52856	1492.05444	-727.63831	1185.16895	1419.56909	-496.61154	1242.33398	1651.04041	-653.82031	1382.71362	1727.23108	-692.26178	1193.46033	1740.09888	-732.57861	1077.78674	1733.34167	-793.00055	962.54041	1699.63599	-835.68701	852.32550	1754.42896	-826.07446	855.43243	1742.80115	-863.77600	780.81757	1339.07190	-613.09473	1368.66711	1268.71484	-617.92682	1144.20850	1255.07886	-638.91815	1033.71350	1251.65210	-661.47577	898.60114	1284.16150	-699.36749	805.23541	1243.15930	-663.83105	798.33673	1250.63696	-691.05725	728.92273	1614.37939	-715.75140	950.28339	1375.02002	-696.58490	944.38098	1575.13232	-549.99139	970.99127	1426.48315	-539.36267	968.70020	1651.12488	-657.31195	647.28473	1607.67297	-653.83484	470.02811	1608.94299	-599.63196	281.92773	1564.89795	-579.61615	72.07046	1529.55310	-538.20721	37.37492	1530.66943	-731.81879	35.54152	1331.28784	-698.01227	649.37360	1354.31567	-763.59875	480.92172	1356.88062	-664.71973	316.25003	1405.32056	-560.00757	128.98055	1461.66553	-509.56781	113.14384	1411.13184	-672.22742	46.16479	1500.32300	-679.16455	1688.32190																																	 
